<!DOCTYPE svg PUBLIC "-//W3C//DTD SVG 1.1//EN" "http://www.w3.org/Graphics/SVG/1.1/DTD/svg11.dtd">

<!-- Uploaded to: SVG Repo, www.svgrepo.com, Transformed by: SVG Repo Mixer Tools -->
<svg width="24px" height="24px" viewBox="0 0 24 24" fill="none" xmlns="http://www.w3.org/2000/svg">

<g id="SVGRepo_bgCarrier" stroke-width="0"/>

<g id="SVGRepo_tracerCarrier" stroke-linecap="round" stroke-linejoin="round"/>

<g id="SVGRepo_iconCarrier"> <path d="M7 11C8.10457 11 9 10.1046 9 9C9 7.89543 8.10457 7 7 7C5.89543 7 5 7.89543 5 9C5 10.1046 5.89543 11 7 11Z" stroke="#ffffff" stroke-width="1.5" stroke-linecap="round" stroke-linejoin="round"/> <path d="M5.56055 21C11.1305 11.1 15.7605 9.35991 21.0005 15.7899" stroke="#ffffff" stroke-width="1.5" stroke-linecap="round" stroke-linejoin="round"/> <path d="M13.28 3H5C3.93913 3 2.92172 3.42136 2.17157 4.17151C1.42142 4.92165 1 5.93913 1 7V17C1 18.0609 1.42142 19.0782 2.17157 19.8284C2.92172 20.5785 3.93913 21 5 21H17C18.0609 21 19.0783 20.5785 19.8284 19.8284C20.5786 19.0782 21 18.0609 21 17V11" stroke="#ffffff" stroke-width="1.5" stroke-linecap="round" stroke-linejoin="round"/> <path d="M18.75 0.829956V8.82996" stroke="#ffffff" stroke-width="1.5" stroke-linecap="round" stroke-linejoin="round"/> <path d="M21.9508 5.63L18.7508 8.83L15.5508 5.63" stroke="#ffffff" stroke-width="1.5" stroke-linecap="round" stroke-linejoin="round"/> </g>

</svg>